<mxfile host="Electron" modified="2023-12-27T03:42:17.710Z" agent="Mozilla/5.0 (Windows NT 10.0; Win64; x64) AppleWebKit/537.36 (KHTML, like Gecko) draw.io/22.1.2 Chrome/114.0.5735.289 Electron/25.9.4 Safari/537.36" etag="NkiwXM9LZxAOmaRbdvrC" version="22.1.2" type="device">
  <diagram name="camadas" id="XUHG3aNlO8fKbmGnUFoP">
    <mxGraphModel dx="1674" dy="836" grid="1" gridSize="10" guides="1" tooltips="1" connect="1" arrows="1" fold="1" page="1" pageScale="1" pageWidth="827" pageHeight="1169" math="0" shadow="0">
      <root>
        <mxCell id="0" />
        <mxCell id="1" parent="0" />
        <mxCell id="bbtF6bjIANASrzS4wM2t-1" value="src" style="sketch=0;outlineConnect=0;fontColor=#232F3E;gradientColor=none;fillColor=#232F3D;strokeColor=none;dashed=0;verticalLabelPosition=bottom;verticalAlign=top;align=center;html=1;fontSize=12;fontStyle=0;aspect=fixed;pointerEvents=1;shape=mxgraph.aws4.folder;" vertex="1" parent="1">
          <mxGeometry x="40" y="130" width="78" height="71" as="geometry" />
        </mxCell>
        <mxCell id="bbtF6bjIANASrzS4wM2t-2" value="main" style="sketch=0;outlineConnect=0;fontColor=#232F3E;gradientColor=none;fillColor=#232F3D;strokeColor=none;dashed=0;verticalLabelPosition=bottom;verticalAlign=top;align=center;html=1;fontSize=12;fontStyle=0;aspect=fixed;pointerEvents=1;shape=mxgraph.aws4.folder;" vertex="1" parent="1">
          <mxGeometry x="40" y="250" width="78" height="71" as="geometry" />
        </mxCell>
        <mxCell id="bbtF6bjIANASrzS4wM2t-3" value="java" style="sketch=0;outlineConnect=0;fontColor=#232F3E;gradientColor=none;fillColor=#232F3D;strokeColor=none;dashed=0;verticalLabelPosition=bottom;verticalAlign=top;align=center;html=1;fontSize=12;fontStyle=0;aspect=fixed;pointerEvents=1;shape=mxgraph.aws4.folder;" vertex="1" parent="1">
          <mxGeometry x="40" y="370" width="78" height="71" as="geometry" />
        </mxCell>
        <mxCell id="bbtF6bjIANASrzS4wM2t-4" value="com.hexagonal" style="sketch=0;outlineConnect=0;fontColor=#232F3E;gradientColor=none;fillColor=#232F3D;strokeColor=none;dashed=0;verticalLabelPosition=bottom;verticalAlign=top;align=center;html=1;fontSize=12;fontStyle=0;aspect=fixed;pointerEvents=1;shape=mxgraph.aws4.folder;" vertex="1" parent="1">
          <mxGeometry x="40" y="490" width="78" height="71" as="geometry" />
        </mxCell>
        <mxCell id="bbtF6bjIANASrzS4wM2t-33" style="edgeStyle=orthogonalEdgeStyle;rounded=0;orthogonalLoop=1;jettySize=auto;html=1;" edge="1" parent="1" source="bbtF6bjIANASrzS4wM2t-5" target="bbtF6bjIANASrzS4wM2t-18">
          <mxGeometry relative="1" as="geometry" />
        </mxCell>
        <mxCell id="bbtF6bjIANASrzS4wM2t-65" style="edgeStyle=orthogonalEdgeStyle;rounded=0;orthogonalLoop=1;jettySize=auto;html=1;" edge="1" parent="1" source="bbtF6bjIANASrzS4wM2t-5" target="bbtF6bjIANASrzS4wM2t-19">
          <mxGeometry relative="1" as="geometry" />
        </mxCell>
        <mxCell id="bbtF6bjIANASrzS4wM2t-5" value="adapters" style="sketch=0;outlineConnect=0;fontColor=#232F3E;gradientColor=none;fillColor=#232F3D;strokeColor=none;dashed=0;verticalLabelPosition=bottom;verticalAlign=top;align=center;html=1;fontSize=12;fontStyle=0;aspect=fixed;pointerEvents=1;shape=mxgraph.aws4.folder;" vertex="1" parent="1">
          <mxGeometry x="40" y="610" width="78" height="71" as="geometry" />
        </mxCell>
        <mxCell id="bbtF6bjIANASrzS4wM2t-99" style="edgeStyle=orthogonalEdgeStyle;rounded=0;orthogonalLoop=1;jettySize=auto;html=1;" edge="1" parent="1" source="bbtF6bjIANASrzS4wM2t-6" target="bbtF6bjIANASrzS4wM2t-22">
          <mxGeometry relative="1" as="geometry" />
        </mxCell>
        <mxCell id="bbtF6bjIANASrzS4wM2t-100" style="edgeStyle=orthogonalEdgeStyle;rounded=0;orthogonalLoop=1;jettySize=auto;html=1;" edge="1" parent="1" source="bbtF6bjIANASrzS4wM2t-6" target="bbtF6bjIANASrzS4wM2t-21">
          <mxGeometry relative="1" as="geometry" />
        </mxCell>
        <mxCell id="bbtF6bjIANASrzS4wM2t-6" value="application" style="sketch=0;outlineConnect=0;fontColor=#232F3E;gradientColor=none;fillColor=#232F3D;strokeColor=none;dashed=0;verticalLabelPosition=bottom;verticalAlign=top;align=center;html=1;fontSize=12;fontStyle=0;aspect=fixed;pointerEvents=1;shape=mxgraph.aws4.folder;" vertex="1" parent="1">
          <mxGeometry x="40" y="1330" width="78" height="71" as="geometry" />
        </mxCell>
        <mxCell id="bbtF6bjIANASrzS4wM2t-7" value="config" style="sketch=0;outlineConnect=0;fontColor=#232F3E;gradientColor=none;fillColor=#232F3D;strokeColor=none;dashed=0;verticalLabelPosition=bottom;verticalAlign=top;align=center;html=1;fontSize=12;fontStyle=0;aspect=fixed;pointerEvents=1;shape=mxgraph.aws4.folder;" vertex="1" parent="1">
          <mxGeometry x="40" y="1850" width="78" height="71" as="geometry" />
        </mxCell>
        <mxCell id="bbtF6bjIANASrzS4wM2t-8" value="HexagonalApplication(C)" style="verticalLabelPosition=bottom;html=1;verticalAlign=top;align=center;strokeColor=none;fillColor=#00BEF2;shape=mxgraph.azure.code_file;pointerEvents=1;" vertex="1" parent="1">
          <mxGeometry x="49" y="1970" width="60" height="70" as="geometry" />
        </mxCell>
        <mxCell id="bbtF6bjIANASrzS4wM2t-9" value="" style="endArrow=none;dashed=1;html=1;dashPattern=1 3;strokeWidth=2;rounded=0;" edge="1" parent="1">
          <mxGeometry width="50" height="50" relative="1" as="geometry">
            <mxPoint x="10" y="240" as="sourcePoint" />
            <mxPoint x="1400" y="240" as="targetPoint" />
          </mxGeometry>
        </mxCell>
        <mxCell id="bbtF6bjIANASrzS4wM2t-10" value="" style="endArrow=none;dashed=1;html=1;dashPattern=1 3;strokeWidth=2;rounded=0;" edge="1" parent="1">
          <mxGeometry width="50" height="50" relative="1" as="geometry">
            <mxPoint x="10" y="480" as="sourcePoint" />
            <mxPoint x="1400" y="480" as="targetPoint" />
          </mxGeometry>
        </mxCell>
        <mxCell id="bbtF6bjIANASrzS4wM2t-11" value="" style="endArrow=none;dashed=1;html=1;dashPattern=1 3;strokeWidth=2;rounded=0;" edge="1" parent="1">
          <mxGeometry width="50" height="50" relative="1" as="geometry">
            <mxPoint x="10" y="360" as="sourcePoint" />
            <mxPoint x="1400" y="360" as="targetPoint" />
          </mxGeometry>
        </mxCell>
        <mxCell id="bbtF6bjIANASrzS4wM2t-12" value="" style="endArrow=none;dashed=1;html=1;dashPattern=1 3;strokeWidth=2;rounded=0;" edge="1" parent="1">
          <mxGeometry width="50" height="50" relative="1" as="geometry">
            <mxPoint x="10" y="120" as="sourcePoint" />
            <mxPoint x="1400" y="120" as="targetPoint" />
          </mxGeometry>
        </mxCell>
        <mxCell id="bbtF6bjIANASrzS4wM2t-13" value="" style="endArrow=none;dashed=1;html=1;dashPattern=1 3;strokeWidth=2;rounded=0;" edge="1" parent="1">
          <mxGeometry width="50" height="50" relative="1" as="geometry">
            <mxPoint x="10" y="600" as="sourcePoint" />
            <mxPoint x="1400" y="600" as="targetPoint" />
          </mxGeometry>
        </mxCell>
        <mxCell id="bbtF6bjIANASrzS4wM2t-14" value="" style="endArrow=none;dashed=1;html=1;dashPattern=1 3;strokeWidth=2;rounded=0;" edge="1" parent="1">
          <mxGeometry width="50" height="50" relative="1" as="geometry">
            <mxPoint x="10" y="1320" as="sourcePoint" />
            <mxPoint x="1400" y="1320" as="targetPoint" />
          </mxGeometry>
        </mxCell>
        <mxCell id="bbtF6bjIANASrzS4wM2t-15" value="" style="endArrow=none;dashed=1;html=1;dashPattern=1 3;strokeWidth=2;rounded=0;" edge="1" parent="1">
          <mxGeometry width="50" height="50" relative="1" as="geometry">
            <mxPoint x="10" y="1840" as="sourcePoint" />
            <mxPoint x="1400" y="1840" as="targetPoint" />
          </mxGeometry>
        </mxCell>
        <mxCell id="bbtF6bjIANASrzS4wM2t-16" value="" style="endArrow=none;dashed=1;html=1;dashPattern=1 3;strokeWidth=2;rounded=0;" edge="1" parent="1">
          <mxGeometry width="50" height="50" relative="1" as="geometry">
            <mxPoint x="10" y="1960" as="sourcePoint" />
            <mxPoint x="1400" y="1960" as="targetPoint" />
          </mxGeometry>
        </mxCell>
        <mxCell id="bbtF6bjIANASrzS4wM2t-17" value="" style="endArrow=none;dashed=1;html=1;dashPattern=1 3;strokeWidth=2;rounded=0;" edge="1" parent="1">
          <mxGeometry width="50" height="50" relative="1" as="geometry">
            <mxPoint x="10" y="2080" as="sourcePoint" />
            <mxPoint x="1400" y="2080" as="targetPoint" />
          </mxGeometry>
        </mxCell>
        <mxCell id="bbtF6bjIANASrzS4wM2t-30" style="edgeStyle=orthogonalEdgeStyle;rounded=0;orthogonalLoop=1;jettySize=auto;html=1;" edge="1" parent="1" source="bbtF6bjIANASrzS4wM2t-18" target="bbtF6bjIANASrzS4wM2t-25">
          <mxGeometry relative="1" as="geometry">
            <Array as="points">
              <mxPoint x="221" y="840" />
              <mxPoint x="119" y="840" />
            </Array>
          </mxGeometry>
        </mxCell>
        <mxCell id="bbtF6bjIANASrzS4wM2t-31" style="edgeStyle=orthogonalEdgeStyle;rounded=0;orthogonalLoop=1;jettySize=auto;html=1;" edge="1" parent="1" source="bbtF6bjIANASrzS4wM2t-18" target="bbtF6bjIANASrzS4wM2t-26">
          <mxGeometry relative="1" as="geometry">
            <Array as="points">
              <mxPoint x="221" y="840" />
              <mxPoint x="319" y="840" />
            </Array>
          </mxGeometry>
        </mxCell>
        <mxCell id="bbtF6bjIANASrzS4wM2t-18" value="in" style="sketch=0;outlineConnect=0;fontColor=#232F3E;gradientColor=none;fillColor=#232F3D;strokeColor=none;dashed=0;verticalLabelPosition=bottom;verticalAlign=top;align=center;html=1;fontSize=12;fontStyle=0;aspect=fixed;pointerEvents=1;shape=mxgraph.aws4.folder;" vertex="1" parent="1">
          <mxGeometry x="182" y="729" width="78" height="71" as="geometry" />
        </mxCell>
        <mxCell id="bbtF6bjIANASrzS4wM2t-78" style="edgeStyle=orthogonalEdgeStyle;rounded=0;orthogonalLoop=1;jettySize=auto;html=1;" edge="1" parent="1" source="bbtF6bjIANASrzS4wM2t-19" target="bbtF6bjIANASrzS4wM2t-58">
          <mxGeometry relative="1" as="geometry">
            <Array as="points">
              <mxPoint x="959" y="840" />
              <mxPoint x="1080" y="840" />
            </Array>
          </mxGeometry>
        </mxCell>
        <mxCell id="bbtF6bjIANASrzS4wM2t-80" style="edgeStyle=orthogonalEdgeStyle;rounded=0;orthogonalLoop=1;jettySize=auto;html=1;" edge="1" parent="1" target="bbtF6bjIANASrzS4wM2t-57">
          <mxGeometry relative="1" as="geometry">
            <mxPoint x="929" y="800.0045454545455" as="sourcePoint" />
            <Array as="points">
              <mxPoint x="960" y="800" />
              <mxPoint x="960" y="840" />
              <mxPoint x="739" y="840" />
            </Array>
          </mxGeometry>
        </mxCell>
        <mxCell id="bbtF6bjIANASrzS4wM2t-129" style="edgeStyle=orthogonalEdgeStyle;rounded=0;orthogonalLoop=1;jettySize=auto;html=1;" edge="1" parent="1" source="bbtF6bjIANASrzS4wM2t-19" target="bbtF6bjIANASrzS4wM2t-61">
          <mxGeometry relative="1" as="geometry">
            <Array as="points">
              <mxPoint x="959" y="840" />
              <mxPoint x="1281" y="840" />
            </Array>
          </mxGeometry>
        </mxCell>
        <mxCell id="bbtF6bjIANASrzS4wM2t-19" value="out" style="sketch=0;outlineConnect=0;fontColor=#232F3E;gradientColor=none;fillColor=#232F3D;strokeColor=none;dashed=0;verticalLabelPosition=bottom;verticalAlign=top;align=center;html=1;fontSize=12;fontStyle=0;aspect=fixed;pointerEvents=1;shape=mxgraph.aws4.folder;" vertex="1" parent="1">
          <mxGeometry x="920" y="729" width="78" height="71" as="geometry" />
        </mxCell>
        <mxCell id="bbtF6bjIANASrzS4wM2t-20" value="FindByAddressByZip&lt;br&gt;CodeAdapter(C)" style="verticalLabelPosition=bottom;html=1;verticalAlign=top;align=center;strokeColor=none;fillColor=#00BEF2;shape=mxgraph.azure.code_file;pointerEvents=1;" vertex="1" parent="1">
          <mxGeometry x="1330" y="730" width="60" height="70" as="geometry" />
        </mxCell>
        <mxCell id="bbtF6bjIANASrzS4wM2t-122" style="edgeStyle=orthogonalEdgeStyle;rounded=0;orthogonalLoop=1;jettySize=auto;html=1;" edge="1" parent="1" source="bbtF6bjIANASrzS4wM2t-21" target="bbtF6bjIANASrzS4wM2t-111">
          <mxGeometry relative="1" as="geometry">
            <Array as="points">
              <mxPoint x="596" y="1550" />
              <mxPoint x="517" y="1550" />
            </Array>
          </mxGeometry>
        </mxCell>
        <mxCell id="bbtF6bjIANASrzS4wM2t-123" style="edgeStyle=orthogonalEdgeStyle;rounded=0;orthogonalLoop=1;jettySize=auto;html=1;" edge="1" parent="1" source="bbtF6bjIANASrzS4wM2t-21" target="bbtF6bjIANASrzS4wM2t-112">
          <mxGeometry relative="1" as="geometry">
            <Array as="points">
              <mxPoint x="596" y="1550" />
              <mxPoint x="679" y="1550" />
            </Array>
          </mxGeometry>
        </mxCell>
        <mxCell id="bbtF6bjIANASrzS4wM2t-21" value="ports" style="sketch=0;outlineConnect=0;fontColor=#232F3E;gradientColor=none;fillColor=#232F3D;strokeColor=none;dashed=0;verticalLabelPosition=bottom;verticalAlign=top;align=center;html=1;fontSize=12;fontStyle=0;aspect=fixed;pointerEvents=1;shape=mxgraph.aws4.folder;" vertex="1" parent="1">
          <mxGeometry x="557" y="1450" width="78" height="71" as="geometry" />
        </mxCell>
        <mxCell id="bbtF6bjIANASrzS4wM2t-103" style="edgeStyle=orthogonalEdgeStyle;rounded=0;orthogonalLoop=1;jettySize=auto;html=1;" edge="1" parent="1" source="bbtF6bjIANASrzS4wM2t-22" target="bbtF6bjIANASrzS4wM2t-101">
          <mxGeometry relative="1" as="geometry">
            <Array as="points">
              <mxPoint x="219" y="1550" />
              <mxPoint x="119" y="1550" />
            </Array>
          </mxGeometry>
        </mxCell>
        <mxCell id="bbtF6bjIANASrzS4wM2t-104" style="edgeStyle=orthogonalEdgeStyle;rounded=0;orthogonalLoop=1;jettySize=auto;html=1;" edge="1" parent="1" source="bbtF6bjIANASrzS4wM2t-22" target="bbtF6bjIANASrzS4wM2t-102">
          <mxGeometry relative="1" as="geometry">
            <Array as="points">
              <mxPoint x="219" y="1550" />
              <mxPoint x="319" y="1550" />
            </Array>
          </mxGeometry>
        </mxCell>
        <mxCell id="bbtF6bjIANASrzS4wM2t-22" value="core" style="sketch=0;outlineConnect=0;fontColor=#232F3E;gradientColor=none;fillColor=#232F3D;strokeColor=none;dashed=0;verticalLabelPosition=bottom;verticalAlign=top;align=center;html=1;fontSize=12;fontStyle=0;aspect=fixed;pointerEvents=1;shape=mxgraph.aws4.folder;" vertex="1" parent="1">
          <mxGeometry x="180" y="1450" width="78" height="71" as="geometry" />
        </mxCell>
        <mxCell id="bbtF6bjIANASrzS4wM2t-25" value="consumer" style="sketch=0;outlineConnect=0;fontColor=#232F3E;gradientColor=none;fillColor=#232F3D;strokeColor=none;dashed=0;verticalLabelPosition=bottom;verticalAlign=top;align=center;html=1;fontSize=12;fontStyle=0;aspect=fixed;pointerEvents=1;shape=mxgraph.aws4.folder;" vertex="1" parent="1">
          <mxGeometry x="80" y="859" width="78" height="71" as="geometry" />
        </mxCell>
        <mxCell id="bbtF6bjIANASrzS4wM2t-124" style="edgeStyle=orthogonalEdgeStyle;rounded=0;orthogonalLoop=1;jettySize=auto;html=1;" edge="1" parent="1" source="bbtF6bjIANASrzS4wM2t-26" target="bbtF6bjIANASrzS4wM2t-28">
          <mxGeometry relative="1" as="geometry">
            <Array as="points">
              <mxPoint x="319" y="960" />
              <mxPoint x="237" y="960" />
            </Array>
          </mxGeometry>
        </mxCell>
        <mxCell id="bbtF6bjIANASrzS4wM2t-125" style="edgeStyle=orthogonalEdgeStyle;rounded=0;orthogonalLoop=1;jettySize=auto;html=1;" edge="1" parent="1" source="bbtF6bjIANASrzS4wM2t-26" target="bbtF6bjIANASrzS4wM2t-27">
          <mxGeometry relative="1" as="geometry">
            <Array as="points">
              <mxPoint x="319" y="960" />
              <mxPoint x="357" y="960" />
            </Array>
          </mxGeometry>
        </mxCell>
        <mxCell id="bbtF6bjIANASrzS4wM2t-26" value="controller" style="sketch=0;outlineConnect=0;fontColor=#232F3E;gradientColor=none;fillColor=#232F3D;strokeColor=none;dashed=0;verticalLabelPosition=bottom;verticalAlign=top;align=center;html=1;fontSize=12;fontStyle=0;aspect=fixed;pointerEvents=1;shape=mxgraph.aws4.folder;" vertex="1" parent="1">
          <mxGeometry x="280" y="859" width="78" height="71" as="geometry" />
        </mxCell>
        <mxCell id="bbtF6bjIANASrzS4wM2t-27" value="request" style="sketch=0;outlineConnect=0;fontColor=#232F3E;gradientColor=none;fillColor=#232F3D;strokeColor=none;dashed=0;verticalLabelPosition=bottom;verticalAlign=top;align=center;html=1;fontSize=12;fontStyle=0;aspect=fixed;pointerEvents=1;shape=mxgraph.aws4.folder;" vertex="1" parent="1">
          <mxGeometry x="318" y="1000" width="78" height="71" as="geometry" />
        </mxCell>
        <mxCell id="bbtF6bjIANASrzS4wM2t-28" value="mapper" style="sketch=0;outlineConnect=0;fontColor=#232F3E;gradientColor=none;fillColor=#232F3D;strokeColor=none;dashed=0;verticalLabelPosition=bottom;verticalAlign=top;align=center;html=1;fontSize=12;fontStyle=0;aspect=fixed;pointerEvents=1;shape=mxgraph.aws4.folder;" vertex="1" parent="1">
          <mxGeometry x="198" y="1001" width="78" height="71" as="geometry" />
        </mxCell>
        <mxCell id="bbtF6bjIANASrzS4wM2t-44" value="CostumerController(C)" style="verticalLabelPosition=bottom;html=1;verticalAlign=top;align=center;strokeColor=none;fillColor=#00BEF2;shape=mxgraph.azure.code_file;pointerEvents=1;" vertex="1" parent="1">
          <mxGeometry x="438" y="1001" width="60" height="70" as="geometry" />
        </mxCell>
        <mxCell id="bbtF6bjIANASrzS4wM2t-51" value="CustomerMapper(I)" style="verticalLabelPosition=bottom;html=1;verticalAlign=top;align=center;strokeColor=none;fillColor=#00BEF2;shape=mxgraph.azure.code_file;pointerEvents=1;" vertex="1" parent="1">
          <mxGeometry x="207" y="1121" width="60" height="70" as="geometry" />
        </mxCell>
        <mxCell id="bbtF6bjIANASrzS4wM2t-52" value="CustomerRequest(C)" style="verticalLabelPosition=bottom;html=1;verticalAlign=top;align=center;strokeColor=none;fillColor=#00BEF2;shape=mxgraph.azure.code_file;pointerEvents=1;" vertex="1" parent="1">
          <mxGeometry x="327" y="1121" width="60" height="70" as="geometry" />
        </mxCell>
        <mxCell id="bbtF6bjIANASrzS4wM2t-53" style="edgeStyle=orthogonalEdgeStyle;rounded=0;orthogonalLoop=1;jettySize=auto;html=1;entryX=0.5;entryY=0;entryDx=0;entryDy=0;entryPerimeter=0;" edge="1" parent="1" source="bbtF6bjIANASrzS4wM2t-28" target="bbtF6bjIANASrzS4wM2t-51">
          <mxGeometry relative="1" as="geometry" />
        </mxCell>
        <mxCell id="bbtF6bjIANASrzS4wM2t-54" style="edgeStyle=orthogonalEdgeStyle;rounded=0;orthogonalLoop=1;jettySize=auto;html=1;entryX=0.5;entryY=0;entryDx=0;entryDy=0;entryPerimeter=0;" edge="1" parent="1" source="bbtF6bjIANASrzS4wM2t-27" target="bbtF6bjIANASrzS4wM2t-52">
          <mxGeometry relative="1" as="geometry" />
        </mxCell>
        <mxCell id="bbtF6bjIANASrzS4wM2t-70" style="edgeStyle=orthogonalEdgeStyle;rounded=0;orthogonalLoop=1;jettySize=auto;html=1;" edge="1" parent="1" source="bbtF6bjIANASrzS4wM2t-57" target="bbtF6bjIANASrzS4wM2t-68">
          <mxGeometry relative="1" as="geometry">
            <Array as="points">
              <mxPoint x="740" y="960" />
              <mxPoint x="639" y="960" />
            </Array>
          </mxGeometry>
        </mxCell>
        <mxCell id="bbtF6bjIANASrzS4wM2t-81" style="edgeStyle=orthogonalEdgeStyle;rounded=0;orthogonalLoop=1;jettySize=auto;html=1;" edge="1" parent="1" source="bbtF6bjIANASrzS4wM2t-57" target="bbtF6bjIANASrzS4wM2t-67">
          <mxGeometry relative="1" as="geometry" />
        </mxCell>
        <mxCell id="bbtF6bjIANASrzS4wM2t-57" value="client" style="sketch=0;outlineConnect=0;fontColor=#232F3E;gradientColor=none;fillColor=#232F3D;strokeColor=none;dashed=0;verticalLabelPosition=bottom;verticalAlign=top;align=center;html=1;fontSize=12;fontStyle=0;aspect=fixed;pointerEvents=1;shape=mxgraph.aws4.folder;" vertex="1" parent="1">
          <mxGeometry x="700" y="860.0199999999999" width="78" height="71" as="geometry" />
        </mxCell>
        <mxCell id="bbtF6bjIANASrzS4wM2t-97" style="edgeStyle=orthogonalEdgeStyle;rounded=0;orthogonalLoop=1;jettySize=auto;html=1;" edge="1" parent="1" source="bbtF6bjIANASrzS4wM2t-58" target="bbtF6bjIANASrzS4wM2t-87">
          <mxGeometry relative="1" as="geometry">
            <Array as="points">
              <mxPoint x="1080" y="960" />
              <mxPoint x="1020" y="960" />
            </Array>
          </mxGeometry>
        </mxCell>
        <mxCell id="bbtF6bjIANASrzS4wM2t-98" style="edgeStyle=orthogonalEdgeStyle;rounded=0;orthogonalLoop=1;jettySize=auto;html=1;" edge="1" parent="1" source="bbtF6bjIANASrzS4wM2t-58" target="bbtF6bjIANASrzS4wM2t-86">
          <mxGeometry relative="1" as="geometry">
            <Array as="points">
              <mxPoint x="1080" y="960" />
              <mxPoint x="1170" y="960" />
            </Array>
          </mxGeometry>
        </mxCell>
        <mxCell id="bbtF6bjIANASrzS4wM2t-58" value="repository" style="sketch=0;outlineConnect=0;fontColor=#232F3E;gradientColor=none;fillColor=#232F3D;strokeColor=none;dashed=0;verticalLabelPosition=bottom;verticalAlign=top;align=center;html=1;fontSize=12;fontStyle=0;aspect=fixed;pointerEvents=1;shape=mxgraph.aws4.folder;" vertex="1" parent="1">
          <mxGeometry x="1041" y="858.9999999999999" width="78" height="71" as="geometry" />
        </mxCell>
        <mxCell id="bbtF6bjIANASrzS4wM2t-61" value="InsertCustomer&lt;br&gt;Adapter(C)" style="verticalLabelPosition=bottom;html=1;verticalAlign=top;align=center;strokeColor=none;fillColor=#00BEF2;shape=mxgraph.azure.code_file;pointerEvents=1;" vertex="1" parent="1">
          <mxGeometry x="1251" y="859.0499999999998" width="60" height="70" as="geometry" />
        </mxCell>
        <mxCell id="bbtF6bjIANASrzS4wM2t-66" style="edgeStyle=orthogonalEdgeStyle;rounded=0;orthogonalLoop=1;jettySize=auto;html=1;entryX=0.5;entryY=0;entryDx=0;entryDy=0;entryPerimeter=0;" edge="1" parent="1" source="bbtF6bjIANASrzS4wM2t-5" target="bbtF6bjIANASrzS4wM2t-20">
          <mxGeometry relative="1" as="geometry" />
        </mxCell>
        <mxCell id="bbtF6bjIANASrzS4wM2t-67" value="response" style="sketch=0;outlineConnect=0;fontColor=#232F3E;gradientColor=none;fillColor=#232F3D;strokeColor=none;dashed=0;verticalLabelPosition=bottom;verticalAlign=top;align=center;html=1;fontSize=12;fontStyle=0;aspect=fixed;pointerEvents=1;shape=mxgraph.aws4.folder;" vertex="1" parent="1">
          <mxGeometry x="700" y="980.0699999999998" width="78" height="71" as="geometry" />
        </mxCell>
        <mxCell id="bbtF6bjIANASrzS4wM2t-68" value="mapper" style="sketch=0;outlineConnect=0;fontColor=#232F3E;gradientColor=none;fillColor=#232F3D;strokeColor=none;dashed=0;verticalLabelPosition=bottom;verticalAlign=top;align=center;html=1;fontSize=12;fontStyle=0;aspect=fixed;pointerEvents=1;shape=mxgraph.aws4.folder;" vertex="1" parent="1">
          <mxGeometry x="570" y="980.0699999999998" width="78" height="71" as="geometry" />
        </mxCell>
        <mxCell id="bbtF6bjIANASrzS4wM2t-69" value="FindAddressByZip&lt;br&gt;CodeClient(I)" style="verticalLabelPosition=bottom;html=1;verticalAlign=top;align=center;strokeColor=none;fillColor=#00BEF2;shape=mxgraph.azure.code_file;pointerEvents=1;" vertex="1" parent="1">
          <mxGeometry x="830" y="979.0699999999998" width="60" height="70" as="geometry" />
        </mxCell>
        <mxCell id="bbtF6bjIANASrzS4wM2t-74" value="AddressResponse&lt;br&gt;Mapper(I)" style="verticalLabelPosition=bottom;html=1;verticalAlign=top;align=center;strokeColor=none;fillColor=#00BEF2;shape=mxgraph.azure.code_file;pointerEvents=1;" vertex="1" parent="1">
          <mxGeometry x="579" y="1100.07" width="60" height="70" as="geometry" />
        </mxCell>
        <mxCell id="bbtF6bjIANASrzS4wM2t-75" value="Address&lt;br&gt;Response(C)" style="verticalLabelPosition=bottom;html=1;verticalAlign=top;align=center;strokeColor=none;fillColor=#00BEF2;shape=mxgraph.azure.code_file;pointerEvents=1;" vertex="1" parent="1">
          <mxGeometry x="709" y="1100.07" width="60" height="70" as="geometry" />
        </mxCell>
        <mxCell id="bbtF6bjIANASrzS4wM2t-76" style="edgeStyle=orthogonalEdgeStyle;rounded=0;orthogonalLoop=1;jettySize=auto;html=1;entryX=0.5;entryY=0;entryDx=0;entryDy=0;entryPerimeter=0;" edge="1" parent="1" source="bbtF6bjIANASrzS4wM2t-68" target="bbtF6bjIANASrzS4wM2t-74">
          <mxGeometry relative="1" as="geometry" />
        </mxCell>
        <mxCell id="bbtF6bjIANASrzS4wM2t-77" style="edgeStyle=orthogonalEdgeStyle;rounded=0;orthogonalLoop=1;jettySize=auto;html=1;entryX=0.5;entryY=0;entryDx=0;entryDy=0;entryPerimeter=0;" edge="1" parent="1" source="bbtF6bjIANASrzS4wM2t-67" target="bbtF6bjIANASrzS4wM2t-75">
          <mxGeometry relative="1" as="geometry" />
        </mxCell>
        <mxCell id="bbtF6bjIANASrzS4wM2t-86" value="mapper" style="sketch=0;outlineConnect=0;fontColor=#232F3E;gradientColor=none;fillColor=#232F3D;strokeColor=none;dashed=0;verticalLabelPosition=bottom;verticalAlign=top;align=center;html=1;fontSize=12;fontStyle=0;aspect=fixed;pointerEvents=1;shape=mxgraph.aws4.folder;" vertex="1" parent="1">
          <mxGeometry x="1131" y="978.0499999999998" width="78" height="71" as="geometry" />
        </mxCell>
        <mxCell id="bbtF6bjIANASrzS4wM2t-87" value="entity" style="sketch=0;outlineConnect=0;fontColor=#232F3E;gradientColor=none;fillColor=#232F3D;strokeColor=none;dashed=0;verticalLabelPosition=bottom;verticalAlign=top;align=center;html=1;fontSize=12;fontStyle=0;aspect=fixed;pointerEvents=1;shape=mxgraph.aws4.folder;" vertex="1" parent="1">
          <mxGeometry x="980" y="979.0699999999998" width="78" height="71" as="geometry" />
        </mxCell>
        <mxCell id="bbtF6bjIANASrzS4wM2t-90" value="AddressEntity(C)" style="verticalLabelPosition=bottom;html=1;verticalAlign=top;align=center;strokeColor=none;fillColor=#00BEF2;shape=mxgraph.azure.code_file;pointerEvents=1;" vertex="1" parent="1">
          <mxGeometry x="944" y="1100.07" width="60" height="70" as="geometry" />
        </mxCell>
        <mxCell id="bbtF6bjIANASrzS4wM2t-91" value="CustomerEntity(C)" style="verticalLabelPosition=bottom;html=1;verticalAlign=top;align=center;strokeColor=none;fillColor=#00BEF2;shape=mxgraph.azure.code_file;pointerEvents=1;" vertex="1" parent="1">
          <mxGeometry x="1034" y="1100.07" width="60" height="70" as="geometry" />
        </mxCell>
        <mxCell id="bbtF6bjIANASrzS4wM2t-92" value="CustomerEntity&lt;br&gt;Mapper(I)" style="verticalLabelPosition=bottom;html=1;verticalAlign=top;align=center;strokeColor=none;fillColor=#00BEF2;shape=mxgraph.azure.code_file;pointerEvents=1;" vertex="1" parent="1">
          <mxGeometry x="1140" y="1099.05" width="60" height="70" as="geometry" />
        </mxCell>
        <mxCell id="bbtF6bjIANASrzS4wM2t-93" style="edgeStyle=orthogonalEdgeStyle;rounded=0;orthogonalLoop=1;jettySize=auto;html=1;entryX=0.5;entryY=0;entryDx=0;entryDy=0;entryPerimeter=0;" edge="1" parent="1" source="bbtF6bjIANASrzS4wM2t-87" target="bbtF6bjIANASrzS4wM2t-90">
          <mxGeometry relative="1" as="geometry" />
        </mxCell>
        <mxCell id="bbtF6bjIANASrzS4wM2t-95" style="edgeStyle=orthogonalEdgeStyle;rounded=0;orthogonalLoop=1;jettySize=auto;html=1;entryX=0.5;entryY=0;entryDx=0;entryDy=0;entryPerimeter=0;" edge="1" parent="1" source="bbtF6bjIANASrzS4wM2t-86" target="bbtF6bjIANASrzS4wM2t-92">
          <mxGeometry relative="1" as="geometry" />
        </mxCell>
        <mxCell id="bbtF6bjIANASrzS4wM2t-96" style="edgeStyle=orthogonalEdgeStyle;rounded=0;orthogonalLoop=1;jettySize=auto;html=1;entryX=0.5;entryY=0;entryDx=0;entryDy=0;entryPerimeter=0;" edge="1" parent="1" source="bbtF6bjIANASrzS4wM2t-87" target="bbtF6bjIANASrzS4wM2t-91">
          <mxGeometry relative="1" as="geometry" />
        </mxCell>
        <mxCell id="bbtF6bjIANASrzS4wM2t-101" value="domain" style="sketch=0;outlineConnect=0;fontColor=#232F3E;gradientColor=none;fillColor=#232F3D;strokeColor=none;dashed=0;verticalLabelPosition=bottom;verticalAlign=top;align=center;html=1;fontSize=12;fontStyle=0;aspect=fixed;pointerEvents=1;shape=mxgraph.aws4.folder;" vertex="1" parent="1">
          <mxGeometry x="80" y="1570" width="78" height="71" as="geometry" />
        </mxCell>
        <mxCell id="bbtF6bjIANASrzS4wM2t-102" value="usecase" style="sketch=0;outlineConnect=0;fontColor=#232F3E;gradientColor=none;fillColor=#232F3D;strokeColor=none;dashed=0;verticalLabelPosition=bottom;verticalAlign=top;align=center;html=1;fontSize=12;fontStyle=0;aspect=fixed;pointerEvents=1;shape=mxgraph.aws4.folder;" vertex="1" parent="1">
          <mxGeometry x="280" y="1570" width="78" height="71" as="geometry" />
        </mxCell>
        <mxCell id="bbtF6bjIANASrzS4wM2t-105" value="Address(C)" style="verticalLabelPosition=bottom;html=1;verticalAlign=top;align=center;strokeColor=none;fillColor=#00BEF2;shape=mxgraph.azure.code_file;pointerEvents=1;" vertex="1" parent="1">
          <mxGeometry x="40" y="1690" width="60" height="70" as="geometry" />
        </mxCell>
        <mxCell id="bbtF6bjIANASrzS4wM2t-106" value="Customer(C)" style="verticalLabelPosition=bottom;html=1;verticalAlign=top;align=center;strokeColor=none;fillColor=#00BEF2;shape=mxgraph.azure.code_file;pointerEvents=1;" vertex="1" parent="1">
          <mxGeometry x="138" y="1690" width="60" height="70" as="geometry" />
        </mxCell>
        <mxCell id="bbtF6bjIANASrzS4wM2t-107" value="InsertCustomer&lt;br&gt;UseCase(C)" style="verticalLabelPosition=bottom;html=1;verticalAlign=top;align=center;strokeColor=none;fillColor=#00BEF2;shape=mxgraph.azure.code_file;pointerEvents=1;" vertex="1" parent="1">
          <mxGeometry x="289" y="1690" width="60" height="70" as="geometry" />
        </mxCell>
        <mxCell id="bbtF6bjIANASrzS4wM2t-108" style="edgeStyle=orthogonalEdgeStyle;rounded=0;orthogonalLoop=1;jettySize=auto;html=1;entryX=0.5;entryY=0;entryDx=0;entryDy=0;entryPerimeter=0;" edge="1" parent="1" source="bbtF6bjIANASrzS4wM2t-101" target="bbtF6bjIANASrzS4wM2t-105">
          <mxGeometry relative="1" as="geometry" />
        </mxCell>
        <mxCell id="bbtF6bjIANASrzS4wM2t-109" style="edgeStyle=orthogonalEdgeStyle;rounded=0;orthogonalLoop=1;jettySize=auto;html=1;entryX=0.5;entryY=0;entryDx=0;entryDy=0;entryPerimeter=0;" edge="1" parent="1" source="bbtF6bjIANASrzS4wM2t-101" target="bbtF6bjIANASrzS4wM2t-106">
          <mxGeometry relative="1" as="geometry" />
        </mxCell>
        <mxCell id="bbtF6bjIANASrzS4wM2t-110" style="edgeStyle=orthogonalEdgeStyle;rounded=0;orthogonalLoop=1;jettySize=auto;html=1;entryX=0.5;entryY=0;entryDx=0;entryDy=0;entryPerimeter=0;" edge="1" parent="1" source="bbtF6bjIANASrzS4wM2t-102" target="bbtF6bjIANASrzS4wM2t-107">
          <mxGeometry relative="1" as="geometry" />
        </mxCell>
        <mxCell id="bbtF6bjIANASrzS4wM2t-111" value="in" style="sketch=0;outlineConnect=0;fontColor=#232F3E;gradientColor=none;fillColor=#232F3D;strokeColor=none;dashed=0;verticalLabelPosition=bottom;verticalAlign=top;align=center;html=1;fontSize=12;fontStyle=0;aspect=fixed;pointerEvents=1;shape=mxgraph.aws4.folder;" vertex="1" parent="1">
          <mxGeometry x="478" y="1570" width="78" height="71" as="geometry" />
        </mxCell>
        <mxCell id="bbtF6bjIANASrzS4wM2t-112" value="out" style="sketch=0;outlineConnect=0;fontColor=#232F3E;gradientColor=none;fillColor=#232F3D;strokeColor=none;dashed=0;verticalLabelPosition=bottom;verticalAlign=top;align=center;html=1;fontSize=12;fontStyle=0;aspect=fixed;pointerEvents=1;shape=mxgraph.aws4.folder;" vertex="1" parent="1">
          <mxGeometry x="640" y="1570" width="78" height="71" as="geometry" />
        </mxCell>
        <mxCell id="bbtF6bjIANASrzS4wM2t-115" value="InsertCustomerInput&lt;br&gt;Port(I)" style="verticalLabelPosition=bottom;html=1;verticalAlign=top;align=center;strokeColor=none;fillColor=#00BEF2;shape=mxgraph.azure.code_file;pointerEvents=1;" vertex="1" parent="1">
          <mxGeometry x="487" y="1690" width="60" height="70" as="geometry" />
        </mxCell>
        <mxCell id="bbtF6bjIANASrzS4wM2t-116" style="edgeStyle=orthogonalEdgeStyle;rounded=0;orthogonalLoop=1;jettySize=auto;html=1;entryX=0.5;entryY=0;entryDx=0;entryDy=0;entryPerimeter=0;" edge="1" parent="1" source="bbtF6bjIANASrzS4wM2t-111" target="bbtF6bjIANASrzS4wM2t-115">
          <mxGeometry relative="1" as="geometry" />
        </mxCell>
        <mxCell id="bbtF6bjIANASrzS4wM2t-117" value="FindAddressBy&lt;br&gt;ZipCodeOutput&lt;br&gt;Port(I)" style="verticalLabelPosition=bottom;html=1;verticalAlign=top;align=center;strokeColor=none;fillColor=#00BEF2;shape=mxgraph.azure.code_file;pointerEvents=1;" vertex="1" parent="1">
          <mxGeometry x="608" y="1690" width="60" height="70" as="geometry" />
        </mxCell>
        <mxCell id="bbtF6bjIANASrzS4wM2t-118" value="InsertCustomer&lt;br&gt;OutputPort(I)" style="verticalLabelPosition=bottom;html=1;verticalAlign=top;align=center;strokeColor=none;fillColor=#00BEF2;shape=mxgraph.azure.code_file;pointerEvents=1;" vertex="1" parent="1">
          <mxGeometry x="708" y="1690" width="60" height="70" as="geometry" />
        </mxCell>
        <mxCell id="bbtF6bjIANASrzS4wM2t-119" style="edgeStyle=orthogonalEdgeStyle;rounded=0;orthogonalLoop=1;jettySize=auto;html=1;entryX=0.5;entryY=0;entryDx=0;entryDy=0;entryPerimeter=0;" edge="1" parent="1" source="bbtF6bjIANASrzS4wM2t-112" target="bbtF6bjIANASrzS4wM2t-117">
          <mxGeometry relative="1" as="geometry" />
        </mxCell>
        <mxCell id="bbtF6bjIANASrzS4wM2t-121" style="edgeStyle=orthogonalEdgeStyle;rounded=0;orthogonalLoop=1;jettySize=auto;html=1;entryX=0.5;entryY=0;entryDx=0;entryDy=0;entryPerimeter=0;" edge="1" parent="1" source="bbtF6bjIANASrzS4wM2t-112" target="bbtF6bjIANASrzS4wM2t-118">
          <mxGeometry relative="1" as="geometry" />
        </mxCell>
        <mxCell id="bbtF6bjIANASrzS4wM2t-126" style="edgeStyle=orthogonalEdgeStyle;rounded=0;orthogonalLoop=1;jettySize=auto;html=1;entryX=0.5;entryY=0;entryDx=0;entryDy=0;entryPerimeter=0;" edge="1" parent="1" source="bbtF6bjIANASrzS4wM2t-26" target="bbtF6bjIANASrzS4wM2t-44">
          <mxGeometry relative="1" as="geometry">
            <Array as="points">
              <mxPoint x="319" y="960" />
              <mxPoint x="468" y="960" />
            </Array>
          </mxGeometry>
        </mxCell>
        <mxCell id="bbtF6bjIANASrzS4wM2t-130" style="edgeStyle=orthogonalEdgeStyle;rounded=0;orthogonalLoop=1;jettySize=auto;html=1;entryX=0.5;entryY=0;entryDx=0;entryDy=0;entryPerimeter=0;" edge="1" parent="1" source="bbtF6bjIANASrzS4wM2t-57" target="bbtF6bjIANASrzS4wM2t-69">
          <mxGeometry relative="1" as="geometry">
            <Array as="points">
              <mxPoint x="739" y="960" />
              <mxPoint x="860" y="960" />
            </Array>
          </mxGeometry>
        </mxCell>
      </root>
    </mxGraphModel>
  </diagram>
</mxfile>
